<?xml version="1.0" encoding="utf-8"?>
<!-- Generator: Adobe Illustrator 16.0.3, SVG Export Plug-In . SVG Version: 6.00 Build 0)  -->
<!DOCTYPE svg PUBLIC "-//W3C//DTD SVG 1.1//EN" "http://www.w3.org/Graphics/SVG/1.1/DTD/svg11.dtd">
<svg version="1.1" id="レイヤー_1" xmlns="http://www.w3.org/2000/svg" xmlns:xlink="http://www.w3.org/1999/xlink" x="0px"
	 y="0px" width="24px" height="24px" viewBox="0 0 24 24" enable-background="new 0 0 24 24" xml:space="preserve">
<g>
	<line fill="none" stroke="#000000" stroke-width="0.75" stroke-miterlimit="10" x1="5.417" y1="5.26" x2="2.333" y2="14.569"/>
	<line fill="none" stroke="#000000" stroke-width="0.75" stroke-miterlimit="10" x1="10.957" y1="12.331" x2="5.602" y2="17.917"/>
	<line fill="none" stroke="#000000" stroke-width="0.75" stroke-miterlimit="10" x1="8.279" y1="21.813" x2="13.883" y2="19.278"/>
	<rect x="10.457" y="7.08" width="10.973" height="5.67"/>
	<rect x="13.027" y="14.15" width="10.973" height="5.669"/>
	<rect x="4.97" y="0.248" width="10.973" height="5.669"/>
	<g>
		<g>
			<g>
				<rect x="0.092" y="12.328" fill="none" width="4.483" height="4.483"/>
				<path fill="#FF1B1B" stroke="#FFFFFF" stroke-width="0.25" d="M2.332,12.443c1.174,0,2.127,0.952,2.127,2.127
					c0,1.174-0.953,2.125-2.127,2.125c-1.173,0-2.125-0.951-2.125-2.125C0.208,13.395,1.159,12.443,2.332,12.443"/>
			</g>
		</g>
	</g>
	<g>
		<g>
			<g>
				<rect x="3.36" y="15.676" fill="none" width="4.483" height="4.482"/>
				<path fill="#FF1B1B" stroke="#FFFFFF" stroke-width="0.25" d="M5.6,15.791c1.174,0,2.127,0.951,2.127,2.128
					c0,1.173-0.953,2.124-2.127,2.124c-1.173,0-2.125-0.951-2.125-2.124C3.476,16.742,4.427,15.791,5.6,15.791"/>
			</g>
		</g>
	</g>
	<g>
		<g>
			<g>
				<rect x="6.038" y="19.571" fill="none" width="4.483" height="4.482"/>
				<path fill="#FF1B1B" stroke="#FFFFFF" stroke-width="0.25" d="M8.278,19.687c1.174,0,2.127,0.951,2.127,2.128
					c0,1.173-0.953,2.124-2.127,2.124c-1.173,0-2.125-0.951-2.125-2.124C6.153,20.638,7.105,19.687,8.278,19.687"/>
			</g>
		</g>
	</g>
</g>
</svg>
